<?xml version="1.0" encoding="UTF-8"?>
<svg id="Layer_1" data-name="Layer 1" xmlns="http://www.w3.org/2000/svg" viewBox="0 0 9035.1 647.57">
  <defs>
    <style>
      .cls-1 {
        fill: none;
      }

      .cls-1, .cls-2 {
        stroke: #231f20;
        stroke-miterlimit: 10;
      }

      .cls-2 {
        fill: #fff;
        stroke-width: .38px;
      }
    </style>
  </defs>
  <rect class="cls-2" x="25.11" y="329.03" width="25.83" height="25.83"/>
  <path class="cls-1" d="M.02,365.68c70.65-2.99,175.04-5.08,300.97,1.32,421.53,21.44,530.24,109.94,881.8,147.85,181.31,19.55,481.52,48.93,826.36-60.72,218.19-69.38,381.92-171.41,487.1-248.17"/>
  <path class="cls-2" d="M3092.93,211.23c67.3,95.12,195.09,245.24,402.62,333.98,85.02,36.35,164.43,54.28,286.45,69.96,190.17,24.44,432.78,55.61,763,5.28,322.8-49.2,376.8-122.55,987.41-304.93,179.31-53.56,326.36-92.55,418.46-116.17"/>
  <path class="cls-2" d="M5866.38,337.96c785.74,249.13,1207.69,281.32,1450.75,254.77,23.13-2.53,80.95-9.55,165.01-15.84,213.43-15.97,431.74-14.92,797.32,14.52,479.68,38.63,528.54,71.01,607.23,15.84,107.93-75.67,175.94-248.75,137.29-607.23"/>
</svg>